HIERARCHY
ROOT SpineBase
{
  OFFSET 0.000000 0.000000 0.000000
  CHANNELS 6 Xposition Yposition Zposition Zrotation Xrotation Yrotation
  JOINT SpineMid
  {
    OFFSET -0.000000 32.938669 0.000000
    CHANNELS 3 Zrotation Xrotation Yrotation
    JOINT SpineShoulder
    {
      OFFSET -0.025165 24.285566 -0.864237
      CHANNELS 3 Zrotation Xrotation Yrotation
      JOINT Neck
      {
        OFFSET -0.019318 7.978781 -0.658873
        CHANNELS 3 Zrotation Xrotation Yrotation
        JOINT Head
        {
          OFFSET -8.193846 10.311031 5.269161
          CHANNELS 3 Zrotation Xrotation Yrotation
          End Site
          {
            OFFSET 0 0 0
          }
        }
      }
      JOINT ShoulderLeft
      {
        OFFSET -6.348348 -7.744896 -14.136893
        CHANNELS 3 Zrotation Xrotation Yrotation
        JOINT ElbowLeft
        {
          OFFSET 1.555906 -30.256599 -11.024978
          CHANNELS 3 Zrotation Xrotation Yrotation
          JOINT WristLeft
          {
            OFFSET -3.257691 -13.593635 26.505126
            CHANNELS 3 Zrotation Xrotation Yrotation
            JOINT HandLeft
            {
              OFFSET 1.703281 -6.249701 -6.170633
              CHANNELS 3 Zrotation Xrotation Yrotation
              JOINT HandTipLeft
              {
                OFFSET 1.287490 -2.833986 1.280584
                CHANNELS 3 Zrotation Xrotation Yrotation
                End Site
                {
                  OFFSET 0 0 0
                }
              }
              JOINT ThumbLeft
              {
                OFFSET 1.849274 -2.270999 -3.178606
                CHANNELS 3 Zrotation Xrotation Yrotation
                End Site
                {
                  OFFSET 0 0 0
                }
              }
            }
          }
        }
      }
      JOINT ShoulderRight
      {
        OFFSET 6.199672 -6.510202 -12.875326
        CHANNELS 3 Zrotation Xrotation Yrotation
        JOINT ElbowRight
        {
          OFFSET 6.192623 -28.679718 -8.980822
          CHANNELS 3 Zrotation Xrotation Yrotation
          JOINT WristRight
          {
            OFFSET -2.598068 -22.411133 -6.610285
            CHANNELS 3 Zrotation Xrotation Yrotation
            JOINT HandRight
            {
              OFFSET -0.569218 -6.002486 0.052727
              CHANNELS 3 Zrotation Xrotation Yrotation
              JOINT HandTipRight
              {
                OFFSET -1.433620 -7.578049 1.621382
                CHANNELS 3 Zrotation Xrotation Yrotation
                End Site
                {
                  OFFSET 0 0 0
                }
              }
              JOINT ThumbRight
              {
                OFFSET -3.157720 -0.197023 -1.633034
                CHANNELS 3 Zrotation Xrotation Yrotation
                End Site
                {
                  OFFSET 0 0 0
                }
              }
            }
          }
        }
      }
    }
  }
  JOINT HipLeft
  {
    OFFSET -8.250850 1.456874 0.037782
    CHANNELS 3 Zrotation Xrotation Yrotation
    JOINT KneeLeft
    {
      OFFSET 27.495788 -39.822938 12.602202
      CHANNELS 3 Zrotation Xrotation Yrotation
      JOINT AnkleLeft
      {
        OFFSET 3.055216 -43.020315 1.541614
        CHANNELS 3 Zrotation Xrotation Yrotation
        JOINT FootLeft
        {
          OFFSET 1.122072 1.257912 -13.846248
          CHANNELS 3 Zrotation Xrotation Yrotation
          End Site
          {
            OFFSET 0 0 0
          }
        }
      }
    }
  }
  JOINT HipRight
  {
    OFFSET 7.950713 0.246919 -8.131921
    CHANNELS 3 Zrotation Xrotation Yrotation
    JOINT KneeRight
    {
      OFFSET 3.619538 -36.717772 -7.497221
      CHANNELS 3 Zrotation Xrotation Yrotation
      JOINT AnkleRight
      {
        OFFSET 14.403784 -36.531645 -4.613155
        CHANNELS 3 Zrotation Xrotation Yrotation
        JOINT FootRight
        {
          OFFSET 0.275806 -4.799128 -11.530461
          CHANNELS 3 Zrotation Xrotation Yrotation
          End Site
          {
            OFFSET 0 0 0
          }
        }
      }
    }
  }
}
MOTION
Frames: 7
Frame Time: 0.033333
2.019571 85.190213 292.129062 8.847053 2.023359 13.341902 0.308851 0.462419 -13.211496 -0.123170 0.369109 0.389227 -21.181529 0.062836 7.775032 0.000000 0.000000 0.000000 3.420746 -34.041861 -3.415074 -37.848413 81.393194 20.588957 154.559785 -69.573021 125.009274 -138.508711 -7.578597 135.599573 0.000000 0.000000 0.000000 0.000000 0.000000 0.000000 -46.315719 5.630172 14.601933 6.698868 -31.002602 -11.930454 -20.839594 -14.166175 -8.394235 58.575205 -1.537569 -11.049184 0.000000 0.000000 0.000000 0.000000 0.000000 0.000000 -23.361894 7.328569 -15.132705 20.674191 14.535410 3.943965 -5.654847 -42.028225 9.956941 0.000000 0.000000 0.000000 -41.741833 -11.703357 -12.659012 47.006241 17.693271 -13.976839 -11.446058 -17.156391 -12.434296 0.000000 0.000000 0.000000
-0.062777 83.928840 294.164576 9.193957 3.023895 0.510293 0.077920 0.425079 -0.451919 -0.156065 0.319713 0.399957 -24.339162 -1.238175 8.725542 0.000000 0.000000 0.000000 -10.240281 -25.754212 -2.342358 120.258196 78.252457 -139.450970 149.746656 -43.279663 120.058202 -138.640820 -7.285585 137.454224 0.000000 0.000000 0.000000 0.000000 0.000000 0.000000 -40.732936 4.345675 11.420892 2.478283 -28.037902 -9.483181 -15.752098 -16.808502 -9.486250 62.681543 6.420143 -14.794113 0.000000 0.000000 0.000000 0.000000 0.000000 0.000000 -21.579836 -0.611362 -4.118411 16.455392 17.667701 3.867614 -2.388327 -43.125263 17.025803 0.000000 0.000000 0.000000 -39.338215 -23.504944 -4.306345 45.635188 23.109735 -13.941119 -14.455952 -18.796508 -0.175455 0.000000 0.000000 0.000000
-1.963640 82.903603 296.002519 9.656775 4.245325 -6.811925 0.071854 0.530502 6.768073 -0.039899 0.500022 0.422804 -24.508802 -0.102057 10.311835 0.000000 0.000000 0.000000 -20.765614 -22.038123 -0.944645 125.028343 65.653870 -148.426829 145.496453 -24.249302 113.299462 -151.589618 -34.686207 130.815958 0.000000 0.000000 0.000000 0.000000 0.000000 0.000000 -30.561533 0.234024 5.676560 -4.613215 -23.646715 -4.419440 -11.592086 -26.833618 -11.429247 65.164188 21.798871 -27.267210 0.000000 0.000000 0.000000 0.000000 0.000000 0.000000 -18.878029 -5.544356 2.350798 13.867575 20.219502 3.681208 -1.783002 -40.185399 20.830929 0.000000 0.000000 0.000000 -32.436176 -31.992818 0.747800 37.597723 29.620758 -11.422961 -16.216151 -20.626489 14.102519 0.000000 0.000000 0.000000
-3.773395 81.996610 297.450964 10.823578 5.906605 -11.659295 -0.144285 0.474117 11.441535 -0.217846 0.404994 0.451692 -26.957489 -1.144169 10.945149 0.000000 0.000000 0.000000 -25.570406 -20.158447 -0.457034 126.451279 61.105397 -148.974361 144.823644 -17.540876 111.889100 -146.594242 -27.145194 150.176363 0.000000 0.000000 0.000000 0.000000 0.000000 0.000000 -15.544282 -6.899465 -0.646994 -17.899196 -20.102652 3.783736 -5.760007 -30.142095 -11.890674 64.059770 32.172808 -34.458437 0.000000 0.000000 0.000000 0.000000 0.000000 0.000000 -17.655231 -9.352209 6.429885 13.180608 23.384322 3.553564 -3.188822 -41.517115 20.028379 0.000000 0.000000 0.000000 -21.538295 -37.709764 6.008441 23.566359 35.587848 -5.300713 -15.873080 -11.006723 20.861884 0.000000 0.000000 0.000000
-6.603098 81.319011 299.481676 11.201375 7.586119 -11.505622 -0.424228 0.372083 11.090288 -0.256854 0.458423 0.443533 -26.286829 -0.149145 12.418334 0.000000 0.000000 0.000000 -25.645444 -20.769090 -0.914805 128.312439 61.393471 -147.354767 148.130704 -17.897335 115.902374 -136.559205 12.895675 158.347336 0.000000 0.000000 0.000000 0.000000 0.000000 0.000000 0.507514 -15.829874 -4.391908 -31.317712 -20.375164 13.163526 -2.170182 -27.306217 -11.618019 62.682539 40.901457 -38.578830 0.000000 0.000000 0.000000 0.000000 0.000000 0.000000 -15.288226 -9.481824 7.904039 10.273091 22.617867 2.119169 -4.847910 -45.622395 11.305004 0.000000 0.000000 0.000000 -8.576729 -37.727680 8.303046 5.098456 37.533359 3.757617 -16.243193 -7.410347 26.822788 0.000000 0.000000 0.000000
-9.507560 81.059982 301.525237 11.782298 9.010525 -6.031478 -0.119608 0.511586 5.467843 -0.335891 0.391153 0.472976 -30.539616 1.168768 16.269819 0.000000 0.000000 0.000000 -22.041378 -24.165409 -2.312003 130.573670 67.320372 -143.265718 150.694240 -29.877565 122.627141 -109.468658 41.092842 122.341329 0.000000 0.000000 0.000000 0.000000 0.000000 0.000000 10.541970 -19.104532 -5.076728 -41.033767 -24.608358 17.499209 1.022825 -19.601115 -11.267721 44.315399 50.732728 -29.111654 0.000000 0.000000 0.000000 0.000000 0.000000 0.000000 -14.817108 -7.991736 3.949032 9.155180 22.439258 0.657499 -10.468585 -47.481745 -4.626693 0.000000 0.000000 0.000000 -2.016244 -35.818847 3.718393 -9.460732 36.305816 10.706225 -15.387104 -8.754486 27.775226 0.000000 0.000000 0.000000
-12.538861 80.635255 303.766462 12.116070 11.118624 5.071085 -0.088588 0.492332 -5.881553 -0.398363 0.383276 0.470042 -29.549522 -1.017098 14.409837 0.000000 0.000000 0.000000 -22.996147 -25.609548 -2.896555 131.959857 70.646919 -134.226505 148.257009 -45.246535 127.624002 -75.303900 45.578414 81.438406 0.000000 0.000000 0.000000 0.000000 0.000000 0.000000 17.113833 -19.708581 -4.573163 -48.582320 -29.369345 18.055053 -2.537092 -6.065270 -9.535596 36.905425 49.471513 -19.861024 0.000000 0.000000 0.000000 0.000000 0.000000 0.000000 -15.356225 -5.501399 -5.736305 10.660814 27.706325 -0.993286 -24.636388 -58.967066 -26.679815 0.000000 0.000000 0.000000 -4.194429 -36.190418 -8.770211 -16.916834 35.739020 14.231361 -13.154573 -3.214357 22.037792 0.000000 0.000000 0.000000
